<svg xmlns="http://www.w3.org/2000/svg" xml:space="preserve" fill-rule="evenodd" stroke-linejoin="round" stroke-miterlimit="2" clip-rule="evenodd" version="1.1" viewBox="0 0 1000 1000"><path d="M1000 500c0 276.142-223.858 500-500 500S0 776.142 0 500 223.858 0 500 0s500 223.858 500 500" fill="#0c1820" fill-rule="nonzero"/><path d="m872.5 681.273-132.133-64.44c-18.733 39.562-45.88 72.574-81.255 96.183 39.55 17.097 77.143 36.792 111.08 59.31 14.105 9.348 20.713 15.716 28.923 13.196 30.16-30.405 54.986-65.628 73.385-104.25M689.383 138.736c-11.837-2.37-15.416 6.192-27.03 21.942-23.788 32.22-51.844 63.08-82.552 92.238 40.436 10.295 76.663 31.863 107.376 62.217l102.128-105.749a380.23 380.23 0 0 0-99.919-70.648" fill="#fff"/><path d="M478.385 101.974c-2.454 1.84-4.294 4.907-7.361 11.042-90.175 176.056-220.837 295.062-322.667 342.91-3.067 1.227-3.067-1.84-.614-3.68 65.638-41.1 174.216-152.133 256.416-315.306 4.294-9.202 11.042-20.244.614-19.63-39.26 11.655-75.453 29.445-107.352 52.142 0 0-8.588 6.134-9.814 7.361-11.042 7.975-14.11 11.655-19.63 23.924-31.286 68.091-69.32 125.14-109.805 169.308-14.723 15.95-19.017 30.058-23.31 50.915-9.202 48.462-9.816 98.763-1.228 147.225 10.429 58.276 32.512 111.645 63.798 157.652 7.36 8.588 15.335 15.95 27.604 22.084 52.756 27.608 107.965 68.708 160.72 122.077 4.294 3.68 7.36 6.747 10.429 9.201 47.234 15.95 98.15 23.31 150.29 20.243 3.068-4.295-4.906-10.429-11.041-16.563-132.502-125.14-272.365-192.005-348.43-208.568-3.068-.614-4.295-3.68-1.228-3.68 112.259 9.814 276.046 77.292 420.817 212.248 3.067 3.067 5.52 4.907 7.974 6.134a387.068 387.068 0 0 0 125.755-55.21c2.453-6.13-2.454-12.879-11.042-19.627-36.806-30.058-77.907-55.21-120.847-76.066-12.27 4.294-25.764 7.975-39.873 10.428-97.536 17.177-186.484-26.377-238.013-101.216-38.033-8.588-74.84-15.336-109.191-22.084-1.84 0-1.84-2.454 0-2.454 29.444-.613 61.956 1.227 96.922 4.908-8.588-15.336-15.95-31.285-21.47-47.848h-16.563c-1.84 0-1.84-3.067-.613-3.067 5.52-1.227 10.428-1.84 15.95-2.454-3.681-11.043-6.135-22.085-8.59-33.74a271.69 271.69 0 0 1-3.68-31.285c-4.907 1.227-9.814 1.84-14.722 3.067-1.227 0-2.454-2.454-1.227-3.067 4.908-1.84 9.815-3.68 15.95-5.52-.614-17.79 0-34.967 3.067-52.143-31.286 15.336-61.344 27.604-88.335 37.42-1.84.613-3.067-1.227-1.227-2.454 30.058-17.79 61.344-36.806 93.856-57.05 22.697-89.56 92.015-161.947 191.39-179.736 14.11-2.454 28.219-3.68 41.715-3.68 32.512-33.74 61.957-70.546 85.88-110.42 6.749-11.04 9.202-20.242 0-25.15-28.217-6.748-58.275-10.428-88.947-10.428-14.11 0-28.218.613-42.327 1.84Z" fill="#2ec8ee" fill-rule="nonzero"/></svg>